<?xml version="1.0" encoding="UTF-8"?>
<svg version="1.1" viewBox="0 0 2048 1099" width="31.88" height="32" xmlns="http://www.w3.org/2000/svg">
<path transform="translate(0)" d="m0 0h2048v1099h-2048z" fill="#FDF9E3"/>
<path transform="translate(666,213)" d="m0 0 2 2 5 35 5 25 7 25 7 20 10 24 12 24 14 24 14 20 11 14 12 14 7 8 23 23 11 9 13 11 14 10 19 12 25 14 22 11 44 15 13 4 36 7 29 4v2l-16 3-36 6-23 6-44 15-19 9-22 12-22 13-17 12-11 9-13 11-10 9-24 24-9 11-12 15-14 20-9 15-10 18-11 22-11 28-9 29-5 22-4 22-3 18h-2l-10-50-7-27-11-31-11-24-13-25-13-21-12-17-13-16-12-14-27-27-11-9-13-11-17-12-20-12-18-10-22-11-21-8-37-12-24-5-43-7v-2l34-5 31-6 22-7 30-10 33-16 23-13 17-11 16-12 16-13 15-14 20-20 9-11 11-13 7-10 12-18 10-17 12-23 9-19 10-28 8-27 7-36z" fill="#4C102A"/>
<path transform="translate(757,77)" d="m0 0h19l16 2 25 6 28 10 33 16 18 10 19 12 16 11 19 14 14 11 11 9 10 9 11 9 47 47 9 11 9 10 11 14 14 18 22 33 9 15 10 18 12 25 10 26 7 27 2 12 1 12v13l-3 17-6 16-9 12-10 9-19 8-9 2-10 1h-13l-16-2-16-3-18-5-26-10-25-12-20-11-23-14-10-7-18-13-13-10-17-14-15-13-8-7-12-12-8-7-10-10-7-8-9-9-9-11-9-10-11-14-13-17-13-18-10-16-15-25-12-24-8-19-9-27-5-25-1-6v-25l3-16 5-12 7-11 7-7 11-7 13-5z" fill="#4C102A"/>
<path transform="translate(236,596)" d="m0 0h22l20 3 29 8 20 8 16 7 19 10 16 9 10 6 15 10 28 20 10 8 11 9 13 11 13 12 17 16 7 6 7 8 16 17 9 10 11 13 13 17 10 13 12 17 13 21 12 21 11 21 7 17 7 19 6 22 3 18 1 16-1 14-4 17-7 14-9 10-10 7-13 6-12 3-9 1h-18l-24-4-22-6-24-9-25-12-21-11-19-12-18-12-19-14-14-11-11-9-13-11-12-11-16-15-18-18v-2h-2l-7-8-12-13-9-11-13-16-14-19-18-27-15-25-10-19-11-25-9-27-4-17-2-13-1-18 2-18 4-13 7-13 9-10 10-7 11-5 12-3z" fill="#4C102A"/>
<path transform="translate(1077,596)" d="m0 0h20l16 3 12 5 11 7 9 9 7 12 5 15 2 16v12l-3 22-7 27-9 24-12 25-12 23-10 16-14 21-14 19-13 16-8 10-10 11-9 11-42 42-11 9-12 11-10 8-18 14-14 10-24 16-15 9-18 10-21 10-19 8-22 7-21 5-17 2h-15l-19-3-15-6-12-9-9-11-6-13-4-19v-25l4-22 6-21 7-20 12-26 14-26 12-19 10-15 14-19 10-13 14-17 10-11 7-8 15-16 18-18 8-7 12-11 8-7 12-10 30-23 12-8 26-17 16-9 19-10 23-10 20-7 22-6z" fill="#4C102A"/>
<path transform="translate(557,77)" d="m0 0h20l16 3 14 5 11 8 7 7 6 9 5 12 3 13v30l-4 22-6 21-9 24-14 29-10 18-12 19-10 15-13 18-11 14-11 13-9 11-29 31-12 12-8 7-9 9-8 7-12 10-14 11-11 9-17 12-21 14-15 9-27 15-20 9-27 10-24 6-22 3h-14l-14-2-13-4-11-6-10-8-8-11-5-11-4-17-1-15 2-21 5-23 9-27 9-21 10-19 13-23 15-23 10-14 9-12 8-10 9-11 8-10 16-17 9-10 26-26 8-7 11-10 11-9 13-11 16-12 18-13 23-15 25-14 24-12 31-12 24-6z" fill="#4C102A"/>
<path transform="translate(1700,540)" d="m0 0h17l12 4 8 6 6 7 5 10 2 8v8h-73l4 15 5 7v2l4 2 6 4 9 2h7l13-4 8-6 6-8 6 2 2 1-1 5-6 8-9 7-9 4-5 1h-16l-10-3-10-6-7-9-5-10-2-11v-9l2-9 8-15 7-6 12-6z" fill="#4C102A"/>
<path transform="translate(1896,540)" d="m0 0h17l11 4 8 6 8 9 5 12 1 12h-73l4 16 6 8 9 6 8 2h7l11-3 10-6 6-9 5 1 4 3-2 5-6 8-11 7-11 4h-15l-12-3-9-6-7-8-5-10-2-8v-15l3-11 7-11 9-8 10-4z" fill="#4C102A"/>
<path transform="translate(1434,549)" d="m0 0h9l10 3 6 4 8 9 3 7 1 12-3 12-6 9-7 6-10 4h-15l-9-4-9-8-5-10-1-3v-15l4-10 9-10 10-5z" fill="#FDF9E3"/>
<path transform="translate(1470,510)" d="m0 0h10v80l-3 11-6 10-8 7-13 6-5 1h-14l-13-4-8-6-7-7-6-11-1-5v-19l4-11 6-9 8-7 11-5 3-1h17l12 4 10 8 2 2zm-36 39-10 3-8 6-6 7-4 10v15l4 9 4 6 8 7 8 3h15l12-5 7-7 5-10 2-9-1-12-5-10-8-8-10-4-4-1z" fill="#4C102A"/>
<path transform="translate(1342,514)" d="m0 0h37l1 1v10h-52v34l31 1v11l-31 1v42h49l2 1v9l-1 1h-61v-110z" fill="#4C102A"/>
<path transform="translate(1567,541)" d="m0 0 2 1v42l-2 17-4 10-5 6-10 6-8 2h-13l-11-3-9-6-6-8-3-11-1-13v-39l1-3h9l1 37 1 18 4 9 8 6 5 2h13l8-3 6-5 3-8 1-5 1-50 1-1z" fill="#4C102A"/>
<path transform="translate(1647,543)" d="m0 0 10 1-3 9-13 28-12 26-8 17-3 1-13-28-22-48-1-5h10l8 16 16 35 3 6 3-4 17-37z" fill="#4C102A"/>
<path transform="translate(1823,540)" d="m0 0h9l11 4 7 5-1 4-3 3-5-1-7-4-10-1-6 4-2 5 1 6 3 5 12 7 10 7 7 8 2 6-1 10-4 8-7 6-9 3h-9l-11-4-6-5-1-3 5-6 4 2 8 5h11l5-3h2l2-5v-8l-4-6-18-11-9-8-3-8 1-11 4-7 8-6z" fill="#4C102A"/>
<path transform="translate(1897,550)" d="m0 0h16l12 6 7 8 3 7v3h-61l3-9 9-10 7-4z" fill="#FDF9E3"/>
<path transform="translate(1707,549)" d="m0 0 13 2 9 5 7 8 3 7v3h-60l1-6 6-9 6-5 5-3z" fill="#FDF9E3"/>
<path transform="translate(1790,542)" d="m0 0h9l5 2-4 8-10 2-9 8-5 11-1 3-1 44-1 5h-9l-1-1v-47l4-13 7-11 8-7z" fill="#4C102A"/>
</svg>
